PathFileType	4	(X/Y/Z)	C:\Users\chris\Documents\GitHub\baseballds\vids\pitch2_Sports2D\pitch2_Sports2D_px_person00.trc
DataRate	CameraRate	NumFrames	NumMarkers	Units	OrigDataRate	OrigDataStartFrame	OrigNumFrames
30	30	12	22	m	30	91	243
Frame#	Time	Hip			RHip			RKnee			RAnkle			RBigToe			RSmallToe			RHeel			LHip			LKnee			LAnkle			LBigToe			LSmallToe			LHeel			Neck			Head			Nose			RShoulder			RElbow			RWrist			LShoulder			LElbow			LWrist		
		X1	Y1	Z1	X2	Y2	Z2	X3	Y3	Z3	X4	Y4	Z4	X5	Y5	Z5	X6	Y6	Z6	X7	Y7	Z7	X8	Y8	Z8	X9	Y9	Z9	X10	Y10	Z10	X11	Y11	Z11	X12	Y12	Z12	X13	Y13	Z13	X14	Y14	Z14	X15	Y15	Z15	X16	Y16	Z16	X17	Y17	Z17	X18	Y18	Z18	X19	Y19	Z19	X20	Y20	Z20	X21	Y21	Z21	X22	Y22	Z22
91	3.033333333333333	375.32902772405646	988.5173209243725	0.0	364.8948492021828	1005.9058098875553	0.0	419.5404430387117	1286.8248813997325	0.0	377.4302813873701	1556.1900835044044	0.0	512.6985068711741	1601.692890446326	0.0	484.9932644740619	1617.7478821168652	0.0	348.8284590193636	1597.319197292496	0.0	405.057046040558	1001.6585616141493	0.0	433.96969144748266	1271.0167085172418	0.0	408.2974977786155	1496.066449580771	0.0	521.435496443441	1554.3193949925999	0.0	506.8160901910901	1530.3164937533286	0.0	384.6936187991529	1530.6324488635464	0.0	406.39532413501684	577.90664556435	0.0	438.94322482692945	415.11772262598674	0.0	501.534577008394	516.4613864447106	0.0	365.3886633786189	648.1450125963065	0.0	364.6230553224669	867.8523261432584	0.0	520.4499991637789	844.0435362304468	0.0	412.847245652804	643.2609498022916	0.0	408.67217808160507	831.0704181923363	0.0	518.9517485362767	849.4070917445058	0.0
92	3.0666666666666664	374.2908930684611	987.3073692020703	0.0	367.3862551527686	1004.2146068073198	0.0	420.04403537192866	1287.0754127476353	0.0	377.7938543262299	1557.893543400699	0.0	514.6454270687657	1599.0981889147229	0.0	488.0095608793217	1615.2979936209663	0.0	350.2872818799039	1597.6906463773603	0.0	402.8708800153667	999.7372566932136	0.0	433.7973891003945	1271.9552277284752	0.0	406.6952001335703	1498.0594164760719	0.0	520.297124298275	1553.459765874566	0.0	504.4133662288368	1530.779350891194	0.0	381.39652953695213	1532.109179303829	0.0	406.3814162599706	578.3108132376337	0.0	440.1193571497721	415.4052218401337	0.0	502.0493289639142	517.8500823623973	0.0	368.8630470115305	647.8024588484116	0.0	368.85010634889363	866.5646721892192	0.0	523.0401170020632	844.3569328280594	0.0	406.9072193414519	642.0348533978082	0.0	406.14914166230875	832.3330657438073	0.0	521.3243722195687	851.715058243235	0.0
93	3.1	374.42663115641506	987.3320806300255	0.0	371.0536320278624	1004.1893712680253	0.0	421.25661606953946	1286.841950252733	0.0	378.0415006868458	1558.2489570111466	0.0	515.2219684623266	1598.675203403644	0.0	488.2433759344321	1613.6007767112933	0.0	350.82114782039116	1597.2932052376582	0.0	400.8074599029296	1000.0492097843207	0.0	432.9548066968808	1271.7941186384492	0.0	404.4842348457853	1500.4930700731009	0.0	519.949850775716	1554.7659480468847	0.0	502.42718551729854	1532.1148771229227	0.0	377.7375718505484	1535.5122261948568	0.0	406.69146669916466	578.9339810811806	0.0	442.01448263203713	415.7558872212376	0.0	503.0653629607646	519.0535816886836	0.0	372.76314473328927	648.8447242730037	0.0	371.64309970626823	864.063992547394	0.0	525.3209879052588	844.5832348938537	0.0	398.96896816471616	641.3038648387667	0.0	402.3799552084498	832.6805210047062	0.0	521.7055109241646	850.5364522228385	0.0
94	3.1333333333333333	374.96421604195496	988.1901315003114	0.0	373.8040660528694	1006.1527265959166	0.0	422.52001378157206	1286.1186118077667	0.0	378.4632989634077	1557.7054821493173	0.0	514.8989249278256	1599.2392372765764	0.0	487.56934185387627	1613.830072795212	0.0	350.5677683794217	1597.4520484628417	0.0	399.50037644053975	1002.3622023644897	0.0	431.68193352575383	1272.00412953688	0.0	403.2912376277674	1501.7839666033265	0.0	520.1183522410518	1556.2855011389954	0.0	501.86417424979317	1533.2644888108182	0.0	375.73109545914656	1538.7835068122395	0.0	407.49861237783034	580.0211714691403	0.0	442.9045658933483	415.9376116858569	0.0	503.1077080669121	521.10182273937	0.0	375.61689093241773	651.2115984136486	0.0	374.96805005142386	862.7881330513862	0.0	528.2056228966669	844.0335957816583	0.0	393.71241687571444	641.8881827071475	0.0	400.1507814399047	833.5950830727618	0.0	520.4825634580465	848.6268464913289	0.0
95	3.1666666666666665	375.4631984411054	988.4863568974216	0.0	374.9395568177549	1008.0222450270402	0.0	423.44175922945146	1285.964167574648	0.0	379.32168347846897	1558.2173429503155	0.0	514.797835084273	1599.7417101454025	0.0	488.2638325499512	1615.4656586025249	0.0	350.85184021070256	1598.4943069525011	0.0	399.7372054801602	1003.6365514381293	0.0	431.35201140742436	1273.3228246983047	0.0	404.26652468039265	1501.0329988874842	0.0	520.8083317372458	1556.4669969375873	0.0	503.36427579959957	1533.6997686748755	0.0	376.06255263878154	1539.4072422813263	0.0	408.6544768349786	581.3570442274271	0.0	442.93993287554525	416.0107864665811	0.0	501.83078826234237	523.9314879178169	0.0	377.4145109618835	653.4275933237736	0.0	379.4145243232809	864.2844361420409	0.0	531.1837797240795	842.9069402272362	0.0	394.74137763949415	643.7643459270074	0.0	401.60025157205433	835.2350190566026	0.0	519.8926706700989	847.487297913101	0.0
96	3.2	376.7911904624055	988.9509207755285	0.0	375.7800667272106	1010.3393718922171	0.0	423.7632053575388	1287.3239267141928	0.0	380.3974400334624	1559.2746254151978	0.0	514.84675434651	1601.118259856113	0.0	489.1271050321802	1617.1434508890884	0.0	351.75928319023467	1599.0880776492268	0.0	400.7753434093223	1004.5420921040061	0.0	432.57731814288877	1274.7788688189792	0.0	406.4984147382104	1499.0814421886926	0.0	521.6194234111517	1556.7434813159757	0.0	505.7908684123354	1533.8748768881178	0.0	378.45829077486246	1537.8204420473696	0.0	410.1403248040105	582.2082757273199	0.0	444.135200823868	416.7024825396984	0.0	501.1235838818696	525.8431946919769	0.0	379.60494220948	655.3800984326256	0.0	384.26983111667084	866.6033244369979	0.0	533.7005461311562	841.5578910808979	0.0	397.98205327312877	646.0295193575661	0.0	404.62739126626946	835.9503332538716	0.0	520.9620739097614	846.1530405044632	0.0
97	3.2333333333333334	378.5987389433203	990.4564369989624	0.0	377.5987032186888	1014.1275634197616	0.0	423.7668839776188	1289.6907598317252	0.0	381.08076404091986	1559.7592656288261	0.0	514.537285365072	1603.0024477230352	0.0	488.8649708508123	1617.851571939621	0.0	352.20582483328803	1599.2840455801763	0.0	400.71108231338746	1007.3317121299731	0.0	434.5731324548434	1275.657507715848	0.0	408.3060904258647	1497.950643920479	0.0	522.007948166426	1557.5124986230348	0.0	507.1377536586431	1533.6894237094261	0.0	381.04075723348717	1536.3276057311127	0.0	411.8362185375123	582.3833443272307	0.0	446.924423933245	418.0996752583035	0.0	502.2630787706656	526.1730432860642	0.0	382.98914849474556	657.4792772935705	0.0	389.046092271275	866.9630517632594	0.0	536.6921041953881	840.2006594411247	0.0	397.69664777679486	647.7145934590271	0.0	405.9928653044093	835.39453558487	0.0	522.9197267079071	845.5008354027739	0.0
98	3.2666666666666666	379.4425059624871	991.453829219093	0.0	379.2851526755321	1015.8605479927439	0.0	424.5759519432361	1291.1085647300683	0.0	381.2689683094851	1560.713068634669	0.0	515.1604347231914	1603.276769004608	0.0	489.27360091518085	1617.8198670620218	0.0	352.27555128549994	1600.4380234277814	0.0	400.4939487371597	1009.3441786073124	0.0	436.545525316492	1275.802123402651	0.0	409.63471401647945	1498.1436544546727	0.0	522.7763067636697	1556.5534199783601	0.0	507.4704996454594	1532.925836820686	0.0	382.55110501031186	1535.3957209203168	0.0	413.41800845936365	582.5488248214383	0.0	449.01866154697063	419.23150258109047	0.0	504.01364698741475	526.2645388956358	0.0	385.73578475852105	658.6755347722251	0.0	393.18170682057894	866.1103480283905	0.0	540.8446814221904	839.2134530275875	0.0	396.8678666155107	648.4309092825021	0.0	407.05283717307213	835.2331563500013	0.0	525.4823651055243	846.7856272649925	0.0
99	3.3	379.1120471182347	990.62315661256	0.0	379.55484961259776	1012.6317896828541	0.0	426.80410619970735	1290.1951413177942	0.0	381.8537736994597	1562.4725114633663	0.0	517.8166624031542	1601.706045354867	0.0	492.00087651809736	1617.7798677032356	0.0	353.20844770605663	1602.2779848671466	0.0	401.38925831432175	1007.1786634226952	0.0	437.58993412575944	1275.3420358551475	0.0	410.61416018756665	1499.735920101948	0.0	524.6711743790219	1554.5209208730216	0.0	508.0144768408374	1533.2467975409947	0.0	382.50902596472196	1535.543886511167	0.0	414.57541263346906	582.8443512213368	0.0	448.9215797960032	419.10534418755543	0.0	505.16217170005496	526.4764987673269	0.0	385.94666467879557	657.9899873969514	0.0	395.58009697827333	866.3876155749314	0.0	544.6392595143194	839.3717002506389	0.0	399.24666456768034	648.0134206309734	0.0	409.5591344212261	836.4305450356622	0.0	528.1343213004822	848.4465405919378	0.0
100	3.3333333333333335	378.7162897810951	989.5951122818799	0.0	379.6775144840565	1008.971449655563	0.0	429.137855520745	1288.2747317111423	0.0	383.3465314799076	1562.9085159430485	0.0	520.0341757223788	1600.9990106860078	0.0	494.8509050788252	1618.1812647848717	0.0	354.935653521101	1603.0897153348624	0.0	401.4415520252919	1004.4419078376129	0.0	437.224291010491	1274.99319279373	0.0	410.46025426525347	1503.4181909766482	0.0	526.7413091371782	1555.763090506332	0.0	508.80973544069025	1536.3830952262974	0.0	380.5793763047667	1538.615046187326	0.0	415.1023536498366	582.5911704171347	0.0	448.40133555418777	417.8153828961712	0.0	506.44904329912976	525.2791451144936	0.0	385.50735872583937	656.5476748954605	0.0	395.97314116611136	867.1971884152517	0.0	545.9137478970612	840.9183903223543	0.0	400.07203005891176	646.6705469305512	0.0	410.7199941564176	837.8925279581234	0.0	529.3630165871854	847.9915575648075	0.0
101	3.3666666666666667	379.2426125589979	990.1654645123137	0.0	380.75707989718154	1009.9749609412897	0.0	429.7568647641307	1287.4691998319274	0.0	384.92850747230557	1560.8816734892887	0.0	519.3125548328769	1603.2649322842094	0.0	494.75321078948565	1619.4661668790507	0.0	355.8815012509232	1602.3351663314256	0.0	400.4036454166188	1005.7425353760589	0.0	436.6571969883634	1275.1418775648765	0.0	409.78719117759	1507.3005541812618	0.0	527.7679821754094	1561.2531226511394	0.0	509.7460676570942	1541.093352817472	0.0	379.0369847146417	1543.0265833050626	0.0	415.53800488940533	581.7459984996246	0.0	449.25344403908406	416.4023868373549	0.0	508.5615707945432	522.2669460056303	0.0	387.53275337370195	655.980638732379	0.0	395.59029691535	866.6192924175625	0.0	545.1739247416045	842.9693021257872	0.0	396.13046040345	645.4178478441934	0.0	408.30779113947284	838.4376421237326	0.0	528.9327733250208	845.9189934104037	0.0
102	3.4	380.36462340295486	991.2355184552875	0.0	381.6314829802666	1012.6178491138938	0.0	429.14913255486715	1287.7867630714359	0.0	385.66251836745965	1558.8046336511215	0.0	517.795941296739	1606.2972552545355	0.0	492.9042260061239	1621.0497838014858	0.0	355.5429847032875	1601.284436999108	0.0	401.14618704277626	1007.7827528038049	0.0	437.203432477942	1275.2762800056805	0.0	410.192754525559	1507.6337099927	0.0	527.6458021595726	1565.7714007541865	0.0	511.0231835366255	1543.743927956036	0.0	380.4015336603352	1543.8750019976414	0.0	417.15789482368024	581.2606433321992	0.0	450.7120878233691	415.949457403788	0.0	510.8607572694429	519.6660110707079	0.0	391.370822041041	656.1222673364579	0.0	395.95123050822804	865.6191751417048	0.0	545.6276125361335	844.5060887093038	0.0	393.5625274880814	645.027834653097	0.0	405.34366668662506	838.5903508735807	0.0	529.1362900213015	846.1794018928953	0.0
